<svg width="27" height="27" viewBox="0 0 27 27" fill="none" xmlns="http://www.w3.org/2000/svg">
<rect width="27" height="27" rx="3" fill="white"/>
<path d="M5.34375 2.10938C4.02344 2.10938 2.95312 3.17969 2.95312 4.5C2.95312 5.82031 4.02344 6.89062 5.34375 6.89062C6.66406 6.89062 7.73438 5.82031 7.73438 4.5C7.73438 3.17969 6.66406 2.10938 5.34375 2.10938Z" fill="#0F1624"/>
<path d="M3.09375 8.85938C3.01608 8.85938 2.95312 8.92234 2.95312 9V23.625C2.95312 23.7027 3.01608 23.7656 3.09375 23.7656H7.59375C7.67141 23.7656 7.73438 23.7027 7.73438 23.625V9C7.73438 8.92234 7.67141 8.85938 7.59375 8.85938H3.09375Z" fill="#0F1624"/>
<path d="M10.4062 8.85938C10.3286 8.85938 10.2656 8.92234 10.2656 9V23.625C10.2656 23.7027 10.3286 23.7656 10.4062 23.7656H14.9062C14.9839 23.7656 15.0469 23.7027 15.0469 23.625V15.75C15.0469 15.1906 15.2691 14.654 15.6647 14.2584C16.0603 13.8629 16.5968 13.6406 17.1562 13.6406C17.7157 13.6406 18.2522 13.8629 18.6478 14.2584C19.0434 14.654 19.2656 15.1906 19.2656 15.75V23.625C19.2656 23.7027 19.3286 23.7656 19.4062 23.7656H23.9062C23.9839 23.7656 24.0469 23.7027 24.0469 23.625V13.9278C24.0469 11.1977 21.6724 9.06187 18.9561 9.30881C18.1183 9.38497 17.2901 9.59322 16.5167 9.92469L15.0469 10.5546V9C15.0469 8.92234 14.9839 8.85938 14.9062 8.85938H10.4062Z" fill="#0F1624"/>
</svg>
